<?xml version="1.0" encoding="utf-8"?>
<!-- Generator: Adobe Illustrator 15.0.0, SVG Export Plug-In . SVG Version: 6.00 Build 0)  -->
<!DOCTYPE svg PUBLIC "-//W3C//DTD SVG 1.1//EN" "http://www.w3.org/Graphics/SVG/1.1/DTD/svg11.dtd">
<svg version="1.1" id="Layer_1" xmlns="http://www.w3.org/2000/svg" xmlns:xlink="http://www.w3.org/1999/xlink" x="0px" y="0px"
	 width="59.53px" height="82.2px" viewBox="0 0 59.53 82.2" enable-background="new 0 0 59.53 82.2" xml:space="preserve">
<circle fill="#A91A1E" cx="30.085" cy="40.432" r="15.669"/>
<path fill="#FFFFFF" d="M22.296,40.623l-0.224,0.654l2.555,2.382c0.431,0.402,0.379,0.972,0.166,1.417
	c-0.132,0.271-0.296,0.471-0.444,0.556l-6.45-6.196l-0.03,0.059c-0.528,1.091-0.189,1.792,0.298,2.077
	c0.229,0.13,0.504,0.167,0.718,0.104c-0.014,0.223-0.064,0.409-0.146,0.576c-0.296,0.613-0.939,0.7-1.459,0.401
	c-0.652-0.379-1.122-1.386-0.437-2.801c0.482-0.997,1.435-1.75,1.434-2.41c0.122-0.083,0.248-0.07,0.353-0.011
	c0.196,0.112,0.334,0.377,0.202,0.653l-0.052,0.108l2.812,2.62l0.055-0.334c-0.034-2.154-1.41-3.591-2.444-4.56
	c0.002-0.166,0.062-0.348,0.132-0.491c0.191-0.396,0.639-0.688,1.024-0.468c0.976,0.564,1.569,2.058,1.85,3.924
	c1.665,0.731,3.88,1.492,4.067,0.523c0.238-1.233-0.568-1.746-0.74-2.133c0.116-0.101,0.189-0.205,0.282-0.148
	c0.342,0.197,1.63,2.468,1.078,3.605C26.226,42.11,23.997,41.423,22.296,40.623z"/>
<path fill="#FFFFFF" d="M24.757,30.98c0.047-0.377,0.261-0.705,0.521-0.923c0.19-0.155,0.401-0.246,0.578-0.259l1.421,4.388
	c0.238,0.746,0.523,0.808,0.793,0.583c0.388-0.322,0.676-0.979,0.778-1.488c0.147-0.038,0.267,0.014,0.334,0.131
	c0.042,0.077,0.062,0.193,0.045,0.326c-0.149,1.014-0.601,2.169-1.167,2.637c-0.493,0.412-1.128,0.569-1.632-0.343
	c-0.057,1.043-0.339,1.982-0.935,2.479c-1.091,0.906-1.986-0.099-2.402-0.83c-1.139-1.995-1.087-4.968,0.37-6.177
	C23.932,31.112,24.349,30.949,24.757,30.98z M24.873,31.724c-0.219,0.088-0.388,0.191-0.545,0.322
	c-1.268,1.053-0.69,3.234,0.018,4.477c0.326,0.57,0.709,0.62,1.035,0.352c0.335-0.279,0.605-0.942,0.648-1.602L24.873,31.724z"/>
<path fill="#FFFFFF" d="M35.479,30.889c-0.241,0.261-1.641,0.158-2.503,1.222c-0.11,0.137,0.138,0.341,0.153,0.556
	c0.081,1.824-1.473,3.723-3.066,4.014c-0.908,0.164-1.625-0.335-1.739-2.02c-0.198-2.541,0.558-6.548,2.947-6.982
	c0.773-0.141,1.278,0.17,1.339,0.935c0.062,0.961-0.956,2.498-2.857,5.29c0.003,0.109,0.003,0.206,0.014,0.302
	c0.088,1.176,0.511,1.426,0.929,1.351c1.073-0.193,1.25-1.931,1.009-2.688c-0.203,0.049-0.396,0.06-0.501,0.028
	c-0.306-0.551-0.071-1.142,0.649-1.272c0.266-0.048,0.529-0.013,0.737,0.097c0.415-0.38,0.749-0.907,3.103-1.323
	C35.992,30.344,35.634,30.714,35.479,30.889z M29.777,32.996c1.403-2.249,1.972-3.47,1.927-4.085
	c-0.031-0.347-0.109-0.538-0.375-0.491C30.432,28.585,29.899,31.15,29.777,32.996z"/>
<path fill="#FFFFFF" d="M34.943,31.48c0.119-0.162,0.107-0.283,0.012-0.319c-0.051-0.021-0.135,0-0.267,0.054
	c-0.101-0.145-0.024-0.521,0.261-0.619c0.49-0.168,0.971-0.263,1.413-0.093c0.382,0.144,0.521,0.422,0.242,0.813l-2.03,3.005
	c-0.225,0.32-0.254,0.624,0.094,0.757c0.307,0.119,0.639,0.059,0.984-0.095l2.119-3.118c0.328-0.479,0.809-0.518,1.19-0.375
	c0.188,0.074,0.345,0.198,0.431,0.336l-2.794,4.134c-0.099,0.145-0.195,0.292-0.29,0.425c0.711-0.083,1.412-0.207,1.926-0.406
	c0.097,0.208,0.021,0.468-0.227,0.568c-0.269,0.108-1.203,0.343-2.111,0.431c-1.376,1.918-3.101,3.846-4.98,3.128
	c-0.589-0.225-1.084-0.937-0.688-1.874c0.607-1.436,2.333-1.567,4.439-1.734c0.189-0.243,0.372-0.503,0.588-0.776
	c-0.65,0.398-1.283,0.59-1.811,0.389c-1.045-0.397-0.64-1.528,0.018-2.502L34.943,31.48z M34.14,37.161
	c-1.534,0.177-2.628,0.388-2.993,1.248c-0.168,0.395,0.07,0.643,0.208,0.695C32.082,39.38,32.828,38.775,34.14,37.161z"/>
<path fill="#FFFFFF" d="M41.565,35.133c1.019,0.482,1.342,1.081,0.989,1.813c-0.307,0.632-0.859,0.729-1.324,0.504
	c-0.166-0.076-0.343-0.217-0.424-0.394c0.266-0.206,0.479-0.48,0.555-0.638c0.102-0.214,0.006-0.399-0.307-0.546
	c-0.703-0.335-2.101,0.48-2.884,2.104c-0.408,0.845-0.102,1.448,0.539,1.754c0.548,0.263,1.065,0.218,1.476-0.087
	c0.236,0.112,0.321,0.291,0.227,0.481c-0.299,0.621-1.789,0.771-2.892,0.245c-1.151-0.548-1.704-1.479-0.991-2.954
	C37.368,35.682,39.688,34.237,41.565,35.133z"/>
<path fill="#FFFFFF" d="M41.11,43.743c-0.45,0.494-0.456,0.8-0.249,0.9c0.191,0.092,0.512,0.081,0.906-0.229
	c0.202,0.097,0.252,0.261,0.141,0.444c-0.463,0.754-1.635,0.838-2.226,0.554c-0.525-0.259-1.077-0.918,0.052-2.168l0.498-0.542
	l-0.496-0.242c-0.91,0.661-2.549,1.709-3.384,1.331c-0.438-0.199-0.489-0.783-0.011-1.57c0.318-0.519,0.756-0.501,1.148-0.31
	c0.125,0.061,0.26,0.195,0.337,0.359c-0.324,0.247-0.566,0.551-0.698,0.764c0.518-0.04,1.07-0.163,2.088-0.912
	c-0.562-0.512-0.553-1.221-0.178-1.833c0.803-1.316,2.347-1.289,3.336-0.807c0.959,0.466,1.376,1.353,0.328,2.506L41.11,43.743z
	 M40.266,41.949l0.444,0.216l1.021-1.11c0.488-0.53,0.416-0.861,0.152-0.989c-0.559-0.273-1.271,0.249-1.633,0.812
	C39.979,41.305,39.907,41.775,40.266,41.949z"/>
<path fill="#FFFFFF" d="M30.211,45.167c-0.961,0.356-1.94,0.48-2.63,0.307c-0.354-0.089-0.445,0.088-0.42,0.161
	c0.037,0.105,0.086,0.205,0.147,0.298c0.529,0.802,1.917,1.101,3.311,0.66c1.39-0.439,2.266-1.556,2.129-2.618
	c-0.016-0.128-0.248-0.438-0.477-0.156C31.836,44.352,31.086,44.842,30.211,45.167z"/>
<path fill="#FFFFFF" d="M29.959,44.686c0.942-0.351,1.725-0.845,2.28-1.24c0.111-0.079,0.286-0.352,0.018-0.536
	c-0.759-0.521-1.921-0.71-3.11-0.203c-1.085,0.462-1.887,1.262-2.153,2.05c-0.14,0.416,0.146,0.505,0.287,0.493
	C27.972,45.19,28.95,45.06,29.959,44.686z"/>
</svg>
