<?xml version="1.0" encoding="utf-8"?>
<!-- Generator: Adobe Illustrator 19.2.0, SVG Export Plug-In . SVG Version: 6.00 Build 0)  -->
<svg version="1.1" id="Layer_1" xmlns="http://www.w3.org/2000/svg" xmlns:xlink="http://www.w3.org/1999/xlink" x="0px" y="0px"
	 viewBox="0 0 32.7 32.8" style="enable-background:new 0 0 32.7 32.8;" xml:space="preserve">
<style type="text/css">
	.st0{fill:#A91A1E;}
	.st1{fill:#FFFFFF;}
</style>
<circle class="st0" cx="16.3" cy="16.4" r="15.7"/>
<path class="st1" d="M8.5,16.6l-0.2,0.7l2.6,2.4c0.4,0.4,0.4,1,0.2,1.4c-0.1,0.3-0.3,0.5-0.4,0.6l-6.5-6.2l0,0.1
	c-0.5,1.1-0.2,1.8,0.3,2.1c0.2,0.1,0.5,0.2,0.7,0.1c0,0.2-0.1,0.4-0.1,0.6c-0.3,0.6-0.9,0.7-1.5,0.4c-0.7-0.4-1.1-1.4-0.4-2.8
	c0.5-1,1.4-1.8,1.4-2.4c0.1-0.1,0.2-0.1,0.4,0c0.2,0.1,0.3,0.4,0.2,0.7L5,14.2l2.8,2.6l0.1-0.3c0-2.2-1.4-3.6-2.4-4.6
	c0-0.2,0.1-0.3,0.1-0.5c0.2-0.4,0.6-0.7,1-0.5c1,0.6,1.6,2.1,1.9,3.9c1.7,0.7,3.9,1.5,4.1,0.5c0.2-1.2-0.6-1.7-0.7-2.1
	c0.1-0.1,0.2-0.2,0.3-0.1c0.3,0.2,1.6,2.5,1.1,3.6C12.5,18.1,10.2,17.4,8.5,16.6z"/>
<path class="st1" d="M11,7c0-0.4,0.3-0.7,0.5-0.9c0.2-0.2,0.4-0.2,0.6-0.3l1.4,4.4c0.2,0.7,0.5,0.8,0.8,0.6c0.4-0.3,0.7-1,0.8-1.5
	c0.1,0,0.3,0,0.3,0.1c0,0.1,0.1,0.2,0,0.3c-0.1,1-0.6,2.2-1.2,2.6c-0.5,0.4-1.1,0.6-1.6-0.3c-0.1,1-0.3,2-0.9,2.5
	c-1.1,0.9-2-0.1-2.4-0.8c-1.1-2-1.1-5,0.4-6.2C10.2,7.1,10.6,6.9,11,7z M11.1,7.7c-0.2,0.1-0.4,0.2-0.5,0.3c-1.3,1.1-0.7,3.2,0,4.5
	c0.3,0.6,0.7,0.6,1,0.4c0.3-0.3,0.6-0.9,0.6-1.6L11.1,7.7z"/>
<path class="st1" d="M21.7,6.9c-0.2,0.3-1.6,0.2-2.5,1.2c-0.1,0.1,0.1,0.3,0.2,0.6c0.1,1.8-1.5,3.7-3.1,4c-0.9,0.2-1.6-0.3-1.7-2
	c-0.2-2.5,0.6-6.5,2.9-7c0.8-0.1,1.3,0.2,1.3,0.9c0.1,1-1,2.5-2.9,5.3c0,0.1,0,0.2,0,0.3c0.1,1.2,0.5,1.4,0.9,1.4
	c1.1-0.2,1.2-1.9,1-2.7c-0.2,0-0.4,0.1-0.5,0c-0.3-0.6-0.1-1.1,0.6-1.3c0.3,0,0.5,0,0.7,0.1c0.4-0.4,0.7-0.9,3.1-1.3
	C22.2,6.3,21.9,6.7,21.7,6.9z M16,9c1.4-2.2,2-3.5,1.9-4.1c0-0.3-0.1-0.5-0.4-0.5C16.7,4.6,16.1,7.1,16,9z"/>
<path class="st1" d="M21.2,7.5c0.1-0.2,0.1-0.3,0-0.3c-0.1,0-0.1,0-0.3,0.1c-0.1-0.1,0-0.5,0.3-0.6c0.5-0.2,1-0.3,1.4-0.1
	c0.4,0.1,0.5,0.4,0.2,0.8l-2,3c-0.2,0.3-0.3,0.6,0.1,0.8c0.3,0.1,0.6,0.1,1-0.1L24,7.8c0.3-0.5,0.8-0.5,1.2-0.4
	c0.2,0.1,0.3,0.2,0.4,0.3l-2.8,4.1c-0.1,0.1-0.2,0.3-0.3,0.4c0.7-0.1,1.4-0.2,1.9-0.4c0.1,0.2,0,0.5-0.2,0.6
	c-0.3,0.1-1.2,0.3-2.1,0.4c-1.4,1.9-3.1,3.8-5,3.1c-0.6-0.2-1.1-0.9-0.7-1.9c0.6-1.4,2.3-1.6,4.4-1.7c0.2-0.2,0.4-0.5,0.6-0.8
	c-0.7,0.4-1.3,0.6-1.8,0.4c-1-0.4-0.6-1.5,0-2.5L21.2,7.5z M20.4,13.1c-1.5,0.2-2.6,0.4-3,1.2c-0.2,0.4,0.1,0.6,0.2,0.7
	C18.3,15.4,19.1,14.8,20.4,13.1z"/>
<path class="st1" d="M27.8,11.1c1,0.5,1.3,1.1,1,1.8c-0.3,0.6-0.9,0.7-1.3,0.5c-0.2-0.1-0.3-0.2-0.4-0.4c0.3-0.2,0.5-0.5,0.6-0.6
	c0.1-0.2,0-0.4-0.3-0.5c-0.7-0.3-2.1,0.5-2.9,2.1c-0.4,0.8-0.1,1.4,0.5,1.8c0.5,0.3,1.1,0.2,1.5-0.1c0.2,0.1,0.3,0.3,0.2,0.5
	c-0.3,0.6-1.8,0.8-2.9,0.2c-1.2-0.5-1.7-1.5-1-3C23.6,11.7,25.9,10.2,27.8,11.1z"/>
<path class="st1" d="M27.4,19.7c-0.5,0.5-0.5,0.8-0.2,0.9c0.2,0.1,0.5,0.1,0.9-0.2c0.2,0.1,0.3,0.3,0.1,0.4
	c-0.5,0.8-1.6,0.8-2.2,0.6c-0.5-0.3-1.1-0.9,0.1-2.2l0.5-0.5L26,18.4c-0.9,0.7-2.5,1.7-3.4,1.3c-0.4-0.2-0.5-0.8,0-1.6
	c0.3-0.5,0.8-0.5,1.1-0.3c0.1,0.1,0.3,0.2,0.3,0.4c-0.3,0.2-0.6,0.6-0.7,0.8c0.5,0,1.1-0.2,2.1-0.9c-0.6-0.5-0.6-1.2-0.2-1.8
	c0.8-1.3,2.3-1.3,3.3-0.8c1,0.5,1.4,1.4,0.3,2.5L27.4,19.7z M26.5,17.9l0.4,0.2l1-1.1c0.5-0.5,0.4-0.9,0.2-1
	c-0.6-0.3-1.3,0.2-1.6,0.8C26.2,17.3,26.2,17.8,26.5,17.9z"/>
<path class="st1" d="M16.5,21.2c-1,0.4-1.9,0.5-2.6,0.3c-0.4-0.1-0.4,0.1-0.4,0.2c0,0.1,0.1,0.2,0.1,0.3c0.5,0.8,1.9,1.1,3.3,0.7
	c1.4-0.4,2.3-1.6,2.1-2.6c0-0.1-0.2-0.4-0.5-0.2C18.1,20.3,17.3,20.8,16.5,21.2z"/>
<path class="st1" d="M16.2,20.7c0.9-0.4,1.7-0.8,2.3-1.2c0.1-0.1,0.3-0.4,0-0.5c-0.8-0.5-1.9-0.7-3.1-0.2c-1.1,0.5-1.9,1.3-2.2,2
	c-0.1,0.4,0.1,0.5,0.3,0.5C14.2,21.2,15.2,21,16.2,20.7z"/>
</svg>
